PathFileType	4	(X/Y/Z)	traj.trc
DataRate	CameraRate	NumFrames	NumMarkers	Units	OrigDataRate	OrigDataStartFrame	OrigNumFrames
30.00	30.00	89	1	mm	30.00	1	200
Frame#	Time	wrist		
		X1	Y1	Z1

0	0.0	440.8884644508362	485.9617352485657	-147.06562459468842
1	0.020100502512562814	440.8884644508362	485.9617352485657	-147.06562459468842
2	0.04020100502512563	440.88830164751863	485.9625063261617	-147.06590103587004
3	0.06030150753768844	440.88749419223166	485.96633063816483	-147.06727210064284
4	0.08040201005025126	440.88541376150937	485.97618408307	-147.07080468668417
5	0.10050251256281408	440.88145146662504	485.9949505115412	-147.07753269134673
6	0.12060301507537688	440.8750176542611	486.0254226704927	-147.08845735012326
7	0.1407035175879397	440.86554170717784	486.07030314716826	-147.10454757511164
8	0.16080402010050251	440.85247184488327	486.13220531322247	-147.12674029347951
9	0.18090452261306533	440.8352749243019	486.21365426880044	-147.15594078592946
10	0.20100502512562815	440.8134362404448	486.3170877866181	-147.19302302516354
11	0.22110552763819097	440.7864593270782	486.4448572560432	-147.23883001434842
12	0.24120603015075376	440.7538657573935	486.5992286271745	-147.2941741255801
13	0.2613065326633166	440.71519494467606	486.7823833549232	-147.35983743834876
14	0.2814070351758794	440.67000394297474	486.99641934309244	-147.4365720780038
15	0.30150753768844224	440.61786724777136	487.2433518884581	-147.52510055421848
16	0.32160804020100503	440.5583765966499	487.5251146248489	-147.6261160994551
17	0.3417085427135678	440.49114076996597	487.84356046722684	-147.74028300742938
18	0.36180904522613067	440.4157853915159	488.20046255576716	-147.8682369715759
19	0.38190954773869346	440.33195272920625	488.5975151999392	-148.01058542351254
20	0.4020100502512563	440.2393014957234	489.0363348225864	-148.16790787150555
21	0.4221105527638191	440.1375066492021	489.5184609040066	-148.34075623893438
22	0.44221105527638194	440.02625919389595	490.0453569260323	-148.52965520275646
23	0.4623115577889447	439.90526598084557	490.6184113161113	-148.73510253197227
24	0.4824120603015075	439.7742495085488	491.2389383913866	-148.95756942609006
25	0.5025125628140703	439.6329477236297	491.908179302777	-149.19750085359064
26	0.5226130653266332	439.4811138215079	492.62730297905733	-149.45531589039248
27	0.542713567839196	439.31851604706776	493.3974070709387	-149.73140805831636
28	0.5628140703517588	439.1449374953283	494.21951889514895	-150.02614566355044
29	0.5829145728643216	438.96017591211165	495.09459637851273	-150.3398721351149
30	0.6030150753768845	438.76404349471335	496.02352900203203	-150.67290636332697
31	0.6231155778894473	438.5563666925709	497.0071387449666	-151.02554303826585
32	0.6432160804020101	438.3369860079336	498.0461810289138	-151.39805298823737
33	0.6633165829145728	438.1057557965315	499.1413456618894	-151.79068351823898
34	0.6834170854271356	437.86254406824526	500.29325778240764	-152.20365874842474
35	0.7035175879396985	437.6072322877748	501.5024788035616	-152.63717995256994
36	0.7236180904522613	437.3397151753093	502.7695073571036	-153.09142589653607
37	0.7437185929648241	437.05990050719623	504.0947802375251	-153.56655317673588
38	0.7638190954773869	436.76770891661056	505.47867334613784	-154.0626965585979
39	0.7839195979899498	436.46307369422425	506.9215026351531	-154.57996931503163
40	0.8040201005025126	436.1459405888758	508.42352505176325	-155.11846356489212
41	0.8241206030150754	435.8162676082392	509.9849394822208	-155.67825061144512
42	0.8442211055276382	435.47402481949337	511.6058876959194	-156.25938128083178
43	0.864321608040201	435.1191941499918	513.2864552894742	-156.8618862605335
44	0.8844221105527639	434.75176918793164	515.0266726308021	-157.48577643783693
45	0.9045226130653267	434.37175498302275	516.8265158032016	-158.13104323829867
46	0.9246231155778895	433.9791678471578	518.6859075494338	-158.79765896421037
47	0.9447236180904522	433.5740351550808	520.6047182158024	-159.4855771330633
48	0.964824120603015	433.156395145057	522.5827666962339	-160.19473281601353
49	0.9849246231155779	432.7262967195419	524.6198213763579	-160.9250429763465
50	1.0050251256281406	432.28379924585073	526.7156010775878	-161.67640680794216
51	1.0251256281407035	431.828972356828	528.869776001201	-162.44870607373966
52	1.0452261306532664	431.3618957515163	531.0819686724184	-163.24180544420224
53	1.065326633165829	430.88265899582603	533.3517548844861	-164.0555528357822
54	1.085427135678392	430.3913613232049	535.6786646427547	-164.88977974938572
55	1.105527638190955	429.8881114353067	538.0621831087599	-165.74430160883762
56	1.1256281407035176	429.37302730266106	540.5017515443027	-166.6189180993464
57	1.1457286432160805	428.84623596534294	542.99676825553	-167.51341350596894
58	1.1658291457286432	428.3078733336414	545.5465895370148	-168.4275570520755
59	1.185929648241206	427.75808398872937	548.1505306158365	-169.36110323781466
60	1.206030150753769	427.19702098333306	550.8078665956609	-170.3137921785779
61	1.2261306532663316	426.6248456424008	553.5178334008211	-171.28534994346472
62	1.2462311557788945	426.041727363773	556.2796287203972	-172.27548889374742
63	1.2663316582914572	425.447843418851	559.0924129522973	-173.283908021336
64	1.2864321608040201	424.84337875326673	561.955310147337	-174.31029328724304
65	1.306532663316583	424.2285257875517	564.8674089533204	-175.35431796004843
66	1.3266331658291457	423.60348421780685	567.8277635591202	-176.41564295436447
67	1.3467336683417086	422.96846081637136	570.8353946387577	-177.49391716930054
68	1.3668341708542713	422.32366923249236	573.889290295484	-178.58877782692807
69	1.3869346733668342	421.66932979299406	576.9884070058588	-179.69985081074537
70	1.407035175879397	421.0056693029472	580.1316705638324	-180.82675100414255
71	1.4271356783919598	420.33292084633825	583.3179770248246	-181.96908262886635
72	1.4472361809045227	419.6513235867391	586.5461936498062	-183.12643958348494
73	1.4673366834170853	418.9611225679758	589.8151598493785	-184.29840578185292
74	1.4874371859296482	418.26256851479855	593.1236881278537	-185.48455549157612
75	1.5075376884422111	417.55591763355056	596.4705650273357	-186.68445367247648
76	1.5276381909547738	416.84143141283755	599.8545520718	-187.89765631505693
77	1.5477386934673367	416.11937642419724	603.2743867111737	-189.12371077896617
78	1.5678391959798996	415.3900241227684	606.728783265417	-190.36215613146373
79	1.5879396984924623	414.6536506479605	610.2164338686019	-191.61252348588465
80	1.6080402010050252	413.91053662412276	613.736009412994	-192.8743363401044
81	1.6281407035175879	413.1609669612136	617.2861604931319	-194.1471109150038
82	1.6482412060301508	412.4052306554702	620.8655183499077	-195.43035649293392
83	1.6683417085427137	411.6436205900773	624.4726958146475	-196.72357575618076
84	1.6884422110552764	410.8764333358372	628.1062882531915	-198.02626512543037
85	1.7085427135678393	410.1039689518385	631.7648745099746	-199.33791509823354
86	1.728643216080402	409.326530786126	635.4470178521062	-200.65801058747067
87	1.7487437185929648	408.5444252763695	639.1512669134513	-201.98603125981685
88	1.7688442211055277	407.75796175053347	642.87615663871	-203.32145187420636
